<?xml version="1.0" standalone="no"?>
<!DOCTYPE svg PUBLIC "-//W3C//DTD SVG 20010904//EN"
 "http://www.w3.org/TR/2001/REC-SVG-20010904/DTD/svg10.dtd">
<svg version="1.0" xmlns="http://www.w3.org/2000/svg"
 width="243.000000pt" height="207.000000pt" viewBox="0 0 243.000000 207.000000"
 preserveAspectRatio="xMidYMid meet">

<g transform="translate(0.000000,207.000000) scale(0.100000,-0.100000)"
fill="#000000" stroke="none">
<path d="M1780 2041 c-83 -27 -137 -58 -193 -109 -214 -201 -220 -521 -13
-728 220 -219 592 -182 764 76 108 162 114 370 15 539 -59 102 -150 174 -270
217 -86 30 -219 32 -303 5z m383 -299 c36 -37 56 -64 52 -73 -3 -8 -84 -91
-181 -183 -174 -168 -175 -168 -196 -150 -52 46 -208 205 -208 212 0 4 27 34
59 66 l60 59 57 -51 58 -50 109 114 c60 63 114 114 121 114 6 0 38 -26 69 -58z"/>
<path d="M44 1996 c-51 -23 -59 -72 -19 -111 22 -23 32 -25 109 -25 97 0 156
-18 181 -56 9 -14 81 -271 161 -572 93 -351 155 -569 175 -609 39 -81 100
-135 177 -157 51 -14 128 -16 589 -16 l532 0 20 26 c26 33 26 55 2 85 l-19 24
-539 5 c-481 4 -541 7 -569 22 -37 21 -54 45 -82 121 l-22 57 601 0 c682 0
648 -4 668 77 7 26 14 55 16 63 4 13 -73 15 -659 12 l-663 -2 -78 292 c-43
161 -80 301 -82 311 -5 16 17 17 371 17 l376 0 0 38 c0 20 3 54 6 74 l7 38
-403 2 -402 3 -25 79 c-20 64 -33 87 -72 126 -58 58 -114 78 -235 85 -67 4
-99 2 -122 -9z"/>
<path d="M872 1428 c-17 -17 -17 -319 0 -336 19 -19 66 -15 78 7 5 11 10 84
10 164 0 127 -2 146 -18 160 -22 20 -53 22 -70 5z"/>
<path d="M1178 1429 c-16 -9 -18 -28 -18 -167 0 -169 3 -182 50 -182 47 0 50
13 50 182 0 145 -1 158 -19 168 -24 12 -41 12 -63 -1z"/>
<path d="M854 349 c-37 -10 -101 -77 -110 -114 -12 -49 2 -122 30 -160 36 -47
80 -68 141 -68 117 0 193 97 171 217 -18 94 -130 155 -232 125z"/>
<path d="M1625 341 c-48 -22 -69 -44 -90 -94 -55 -132 69 -274 208 -236 82 22
148 123 132 202 -11 52 -50 103 -97 126 -54 26 -100 26 -153 2z"/>
</g>
</svg>
